%
T1C.035F197S55
X1926Y1991
X1926Y2001
X1926Y2011
X1926Y2021
X1926Y2031
X1926Y2041
X1926Y2051
X1956Y2051
X1956Y2041
X1956Y2031
X1956Y2021
X1956Y2011
X1956Y2001
X1956Y1991
X1966Y1951
X1966Y1941
X1966Y1931
X1966Y1921
X1966Y1911
X1966Y1901
X1966Y1891
X1996Y1891
X1996Y1901
X1996Y1911
X1996Y1921
X1996Y1931
X1996Y1941
X1996Y1951
X2061Y2046
X2051Y2046
X2041Y2046
X2081Y2046
X2071Y2046
X2061Y2016
X2041Y2016
X2051Y2016
X2071Y2016
X2081Y2016
X2086Y1961
X2086Y1951
X2086Y1941
X2086Y1931
X2086Y1921
X2086Y1911
X2086Y1901
X2116Y1901
X2116Y1911
X2116Y1921
X2116Y1931
X2116Y1941
X2116Y1951
X2116Y1961
X2091Y2016
X2101Y2016
X2101Y2046
X2091Y2046
T2C.037F197S55
X1936Y1876
X1915Y188
X1933Y193
X1918Y1954
X1926Y1976
X1916Y2016
X1916Y2056
X1925Y206
X1965Y206
X1971Y2051
X1971Y2041
X1971Y2031
X1971Y2016
X1981Y1991
X196Y1981
X1966Y1976
X1966Y1966
X1976Y1876
X2011Y1918
X2017Y193
X2036Y1936
X2036Y1946
X2036Y1956
X2006Y1966
X2036Y1966
X2036Y1976
X2036Y1986
X2021Y1991
X2036Y1996
X2011Y2016
X2011Y2031
X2011Y2041
X2011Y2051
X2076Y1996
X2076Y1986
X2076Y1976
X2076Y1966
X2076Y1956
X2076Y1946
X2076Y1936
X2051Y1916
X2051Y1876
X2081Y1876
X2121Y1876
X2136Y1881
X2136Y1921
X2136Y1931
X2136Y1971
X2136Y1986
X2096Y1986
X2146Y1921
X2146Y1881
T3C.052F107S55
X189Y193
X189Y195
X189Y198
X189Y2
X189Y202
X189Y205
X189Y207
X1925Y208
X1945Y208
X1976Y208
X1996Y208
M30
